<svg id="Ebene_1" data-name="Ebene 1" xmlns="http://www.w3.org/2000/svg" viewBox="0 0 39 39"><defs><style>.cls-1{fill:#fff;}</style></defs><title>Zeichenfläche 1 Kopie 2</title><path class="cls-1" d="M30.85135,10.17568a10.03908,10.03908,0,0,1-3.08108,1.13513,4.82449,4.82449,0,0,0-8.43243,3.24324A2.7597,2.7597,0,0,0,19.5,15.68919,13.41022,13.41022,0,0,1,9.446,10.5a4.22282,4.22282,0,0,0-.64865,2.43243,4.64307,4.64307,0,0,0,2.10811,4.05406,5.2787,5.2787,0,0,1-2.27027-.64865h0A4.88919,4.88919,0,0,0,12.527,21.2027a3.57042,3.57042,0,0,1-1.2973.16217,2.05667,2.05667,0,0,1-.973-.16217,4.87048,4.87048,0,0,0,4.54054,3.40541,9.75481,9.75481,0,0,1-6.16216,2.10811H7.5a12.05337,12.05337,0,0,0,7.62162,2.59459,13.80256,13.80256,0,0,0,13.946-13.94595v-.64864A9.283,9.283,0,0,0,31.5,12.12162a13.697,13.697,0,0,1-2.75676.81081A5.10363,5.10363,0,0,0,30.85135,10.17568Z"/></svg>