<svg id="Ebene_1" data-name="Ebene 1" xmlns="http://www.w3.org/2000/svg" viewBox="0 0 39 39"><defs><style>.cls-1{fill:#fff;}</style></defs><title>Zeichenfläche 1 Kopie</title><path class="cls-1" d="M31.4,14.6a9.76764,9.76764,0,0,0-.6-2.9,4.86682,4.86682,0,0,0-1.4-2.1,5.53218,5.53218,0,0,0-2.1-1.4,9.76764,9.76764,0,0,0-2.9-.6c-1.3-.1-1.7-.1-4.9-.1s-3.7,0-4.9.1a9.76764,9.76764,0,0,0-2.9.6A4.86682,4.86682,0,0,0,9.6,9.6a5.53218,5.53218,0,0,0-1.4,2.1,9.76764,9.76764,0,0,0-.6,2.9c-.1,1.3-.1,1.7-.1,4.9,0,3.3,0,3.7.1,4.9a9.76764,9.76764,0,0,0,.6,2.9,4.86682,4.86682,0,0,0,1.4,2.1,5.53218,5.53218,0,0,0,2.1,1.4,9.76764,9.76764,0,0,0,2.9.6c1.3.1,1.7.1,4.9.1s3.7,0,4.9-.1a9.76764,9.76764,0,0,0,2.9-.6,4.86682,4.86682,0,0,0,2.1-1.4,5.53218,5.53218,0,0,0,1.4-2.1,9.76764,9.76764,0,0,0,.6-2.9c.1-1.3.1-1.7.1-4.9C31.5,16.2,31.5,15.8,31.4,14.6Zm-2.1,9.7a6.49375,6.49375,0,0,1-.4,2.2,3.91737,3.91737,0,0,1-2.3,2.3,4.99421,4.99421,0,0,1-2.2.4c-1.3.1-1.6.1-4.8.1s-3.6,0-4.8-.1a6.49375,6.49375,0,0,1-2.2-.4,3.39017,3.39017,0,0,1-1.4-.9,3.39017,3.39017,0,0,1-.9-1.4,4.99421,4.99421,0,0,1-.4-2.2c-.1-1.3-.1-1.6-.1-4.8s0-3.6.1-4.8a6.49375,6.49375,0,0,1,.4-2.2,3.39017,3.39017,0,0,1,.9-1.4,3.39017,3.39017,0,0,1,1.4-.9,4.99421,4.99421,0,0,1,2.2-.4c1.3-.1,1.6-.1,4.8-.1s3.6,0,4.8.1a6.49375,6.49375,0,0,1,2.2.4,3.39017,3.39017,0,0,1,1.4.9,3.39017,3.39017,0,0,1,.9,1.4,4.99421,4.99421,0,0,1,.4,2.2c.1,1.3.1,1.6.1,4.8C29.3,22.7,29.3,23.1,29.3,24.3Z"/><path class="cls-1" d="M19.5,13.3a6.2,6.2,0,1,0,6.2,6.2A6.23121,6.23121,0,0,0,19.5,13.3Zm0,10.2a4,4,0,1,1,4-4A4.01176,4.01176,0,0,1,19.5,23.5Z"/><circle class="cls-1" cx="25.9" cy="13.1" r="1.4"/></svg>